<?xml version="1.0" standalone="no"?>
<!DOCTYPE svg PUBLIC "-//W3C//DTD SVG 20010904//EN"
 "http://www.w3.org/TR/2001/REC-SVG-20010904/DTD/svg10.dtd">
<svg version="1.0" xmlns="http://www.w3.org/2000/svg"
 width="512.000000pt" height="512.000000pt" viewBox="0 0 512.000000 512.000000"
 preserveAspectRatio="xMidYMid meet">

<g transform="translate(0.000000,512.000000) scale(0.100000,-0.100000)"
fill="#000000" stroke="none">
<path d="M400 5109 c-81 -15 -185 -76 -250 -146 -63 -66 -94 -120 -126 -213
-18 -53 -19 -123 -19 -2190 0 -2067 1 -2137 19 -2190 32 -93 63 -147 126 -213
68 -73 170 -131 259 -147 74 -14 4228 -14 4302 0 89 16 191 74 259 147 63 66
94 120 126 213 18 53 19 123 19 2190 0 2067 -1 2137 -19 2190 -32 93 -63 147
-126 213 -68 73 -170 131 -259 147 -67 13 -4246 12 -4311 -1z m4280 -200 c97
-21 192 -111 222 -212 19 -61 19 -4213 0 -4274 -30 -101 -125 -191 -222 -212
-72 -15 -4168 -15 -4240 0 -97 21 -192 111 -222 212 -19 61 -19 4213 0 4274
29 97 116 184 209 209 64 17 4173 20 4253 3z"/>
<path d="M531 4626 c-53 -29 -50 89 -51 -2063 0 -1532 3 -2008 12 -2028 27
-59 -109 -55 2068 -55 2177 0 2041 -4 2068 55 9 20 12 497 12 2026 0 2176 4
2040 -55 2067 -40 19 -4020 17 -4054 -2z m3909 -2066 l0 -1880 -1880 0 -1880
0 0 1880 0 1880 1880 0 1880 0 0 -1880z"/>
<path d="M2380 4050 c-502 -69 -924 -363 -1149 -799 -72 -142 -101 -222 -135
-374 -88 -390 -6 -811 223 -1145 230 -335 558 -556 958 -644 133 -29 414 -31
548 -4 513 103 940 456 1130 934 75 191 112 406 102 606 -25 540 -332 1021
-806 1265 -219 112 -405 159 -651 166 -85 2 -184 0 -220 -5z m243 -196 l37 -7
0 -188 0 -189 -100 0 -100 0 0 189 0 190 28 4 c46 7 95 7 135 1z m-363 -278
l0 -244 31 -31 31 -31 238 0 238 0 31 31 31 31 0 244 c0 134 3 244 6 244 25 0
165 -50 243 -86 319 -149 568 -427 679 -761 48 -143 65 -250 65 -408 0 -226
-41 -395 -145 -597 -121 -238 -336 -449 -575 -567 -76 -37 -190 -81 -245 -95
l-28 -6 0 244 0 244 -31 31 -31 31 -238 0 -238 0 -31 -31 -31 -31 0 -244 c0
-134 -2 -244 -4 -244 -2 0 -39 11 -82 25 -330 107 -609 349 -773 670 -98 194
-152 448 -136 649 44 540 377 970 890 1147 44 15 86 28 93 28 9 1 12 -54 12
-243z m400 -2115 l0 -189 -50 -7 c-27 -4 -72 -4 -100 0 l-50 7 0 189 0 189
100 0 100 0 0 -189z"/>
<path d="M1770 2851 c-86 -28 -150 -82 -191 -161 -20 -37 -24 -60 -24 -130 0
-73 4 -92 27 -135 31 -60 77 -104 138 -136 65 -34 195 -34 260 0 61 32 107 76
138 136 23 43 27 62 27 135 0 70 -4 93 -24 130 -54 104 -142 161 -256 166 -38
2 -81 0 -95 -5z"/>
<path d="M3190 2851 c-86 -28 -150 -82 -191 -161 -20 -37 -24 -60 -24 -130 0
-73 4 -92 27 -135 31 -60 77 -104 138 -136 65 -34 195 -34 260 0 61 32 107 76
138 136 23 43 27 62 27 135 0 70 -4 93 -24 130 -54 104 -142 161 -256 166 -38
2 -81 0 -95 -5z"/>
</g>
</svg>
